<svg
  width="375"
  height="375"
  viewBox="0 0 375 375"
  fill="none"
  xmlns="http://www.w3.org/2000/svg"
>
  <path
    fill-rule="evenodd"
    clip-rule="evenodd"
    d="M0 75C0 33.5786 33.5786 0 75 0H300C341.421 0 375 33.5786 375 75V300C375 341.421 341.421 375 300 375H75C33.5786 375 0 341.421 0 300V75ZM162 275H212V325H162V312H112H88L88 138H112H162V125H212V175H162V162H112V288H162V275ZM212 200H162V250H212V237H262H286L286 63H262H138V50H88V100H138V87L262 87V213H212V200Z"
    fill="#2E3138"
  />
</svg>
